<svg xmlns="http://www.w3.org/2000/svg" width="31.479" height="26.002" viewBox="0 0 31.479 26.002">
  <g id="Group_1751" data-name="Group 1751" transform="translate(3310.999 -1868)">
    <g id="Group_373" data-name="Group 373" transform="translate(-3309.999 1875.914)">
      <path id="Path_265" data-name="Path 265" d="M5,9.99A5,5,0,1,0,0,5,4.994,4.994,0,0,0,5,9.99Z" fill="none" stroke="#00f8fc" stroke-linecap="round" stroke-linejoin="round" stroke-width="2"/>
    </g>
    <g id="Group_374" data-name="Group 374" transform="translate(-3300.008 1880.511)">
      <path id="Path_266" data-name="Path 266" d="M0,.444H12.76" fill="none" stroke="#00f8fc" stroke-linecap="round" stroke-linejoin="round" stroke-width="2"/>
    </g>
    <g id="Group_375" data-name="Group 375" transform="translate(-3288.878 1881.322)">
      <path id="Path_267" data-name="Path 267" d="M.444,0V2.5" fill="none" stroke="#00f8fc" stroke-linecap="round" stroke-linejoin="round" stroke-width="2"/>
    </g>
    <g id="Group_376" data-name="Group 376" transform="translate(-3292.277 1881.322)">
      <path id="Path_268" data-name="Path 268" d="M.444,0V2.5" fill="none" stroke="#00f8fc" stroke-linecap="round" stroke-linejoin="round" stroke-width="2"/>
    </g>
    <g id="Group_377" data-name="Group 377" transform="translate(-3295.674 1881.322)">
      <path id="Path_269" data-name="Path 269" d="M.444,0V2.5" fill="none" stroke="#00f8fc" stroke-linecap="round" stroke-linejoin="round" stroke-width="2"/>
    </g>
    <g id="Group_378" data-name="Group 378" transform="translate(-3301.452 1869.011)">
      <path id="Path_270" data-name="Path 270" d="M.183,3.449C5.341-1.8,14.8-.921,18.943,5.149c4.233,6.2,1.138,15.287-5.741,18.03A12.265,12.265,0,0,1,0,20.122" fill="none" stroke="#00f8fc" stroke-linecap="round" stroke-linejoin="round" stroke-width="2"/>
    </g>
  </g>
</svg>
